# xmcd CD database file
#
# Track frame offsets:
#	150
#	12038
#	24647
#	36342
#	49029
#	61517
#	74508
#	86888
#	100149
#	112876
#	124269
#	136750
#	151203
#	162376
#	173582
#	186499
#	199649
#	211595
#	224701
#	237469
#	249261
#	260405
#	271188
#	284407
#	296563
#	311132
#
# Disc length: 4331 seconds
#
# Revision: 0
# Processed by: cddbd v1.5.2PL0 Copyright (c) Steve Scherf et al.
# Submitted via: CDex 1.70beta1
#
DISCID=7a10e91a
DTITLE=Ivory Joe Hunter - Ivory Joe Hunter
DYEAR=1900
DGENRE=Blues
TTITLE0=I Like It
TTITLE1=Changing Blues
TTITLE2=All States Boogie
TTITLE3=That's The Gal For Me
TTITLE4=I Quit My Pretty Mama
TTITLE5=The Code Song (I Love You)
TTITLE6=Stop Rocking That Train
TTITLE7=Lying Woman
TTITLE8=Siesta With Sonny
TTITLE9=Don't Be No Fool, Fool
TTITLE10=Come On Let Your Hair Down
TTITLE11=Blues At Sunrise
TTITLE12=She's Gone Blues
TTITLE13=Old Gal And New Gal Blues
TTITLE14=No Money No Luck Blues
TTITLE15=In Time
TTITLE16=False Friend Blues
TTITLE17=Send Me, Pretty Mama
TTITLE18=Landlord Blues
TTITLE19=Woo Wee Blues
TTITLE20=Don't Know
TTITLE21=I Got Your Water On
TTITLE22=Guess Who
TTITLE23=All States Boogie (Take 1)
TTITLE24=Lying Woman (Take 1)
TTITLE25=Old Gal New Gal Blues (Take 1)
EXTD=
EXTT0=
EXTT1=
EXTT2=
EXTT3=
EXTT4=
EXTT5=
EXTT6=
EXTT7=
EXTT8=
EXTT9=
EXTT10=
EXTT11=
EXTT12=
EXTT13=
EXTT14=
EXTT15=
EXTT16=
EXTT17=
EXTT18=
EXTT19=
EXTT20=
EXTT21=
EXTT22=
EXTT23=
EXTT24=
EXTT25=
PLAYORDER=
